<svg xmlns="http://www.w3.org/2000/svg" viewBox="0 0 200 200">
  <ellipse cx="100" cy="174" rx="54" ry="10" fill="#cfe0d3"/>
  <g stroke="#1b4332" stroke-width="4">
    <rect x="86" y="34" width="28" height="60" rx="14" fill="#52b788"/>
    <rect x="66" y="56" width="20" height="38" rx="10" fill="#74c69d" transform="rotate(-12 76 75)"/>
    <rect x="114" y="48" width="20" height="38" rx="10" fill="#74c69d" transform="rotate(12 124 67)"/>
  </g>
  <g fill="#1b4332">
    <circle cx="94" cy="48" r="1.8"/><circle cx="106" cy="58" r="1.8"/><circle cx="95" cy="70" r="1.8"/><circle cx="105" cy="80" r="1.8"/>
  </g>
  <circle cx="100" cy="28" r="7" fill="#c96f4a" stroke="#1b4332" stroke-width="3.5"/>
  <path d="M62 96 h76 l-8 70 a8 8 0 0 1-8 7 H78 a8 8 0 0 1-8-7 z" fill="#fffdf8" stroke="#1b4332" stroke-width="5" stroke-linejoin="round"/>
  <rect x="55" y="83" width="90" height="19" rx="9.5" fill="#e9b44c"/>
</svg>
